<svg width="44" height="48" viewBox="0 0 44 48" fill="none" xmlns="http://www.w3.org/2000/svg">
<path d="M22.4219 30.4798C20.5716 30.4798 19.0378 29.9188 17.8205 28.7968C16.6519 27.6261 16.0676 26.1383 16.0676 24.3334C16.0676 22.5285 16.6519 21.0651 17.8205 19.9432C19.0378 18.7724 20.5716 18.1871 22.4219 18.1871C24.3209 18.1871 25.8547 18.7724 27.0233 19.9432C28.1919 21.0651 28.7762 22.5285 28.7762 24.3334C28.7762 26.1871 28.1919 27.6749 27.0233 28.7968C25.8547 29.9188 24.3209 30.4798 22.4219 30.4798Z" fill="#FFE600"/>
<path d="M22.4538 43.7968C17.9741 43.7968 14.0544 43.0407 10.6946 41.5285C7.38359 40.0163 4.82725 37.87 3.02565 35.0895C1.27273 32.309 0.39628 29.0163 0.39628 25.2115V24.2602C0.39628 20.4066 1.27273 17.0651 3.02565 14.2358C4.82725 11.4066 7.38359 9.23585 10.6946 7.72366C14.0544 6.16268 17.9741 5.38219 22.4538 5.38219C26.5926 5.38219 30.2932 6.08951 33.5556 7.50414C36.8666 8.87 39.423 10.7968 41.2246 13.2846C43.0749 15.7237 44 18.5285 44 21.6993V21.9919H33.1173V21.6993C33.1173 19.748 32.1191 18.1627 30.1228 16.9432C28.1751 15.6749 25.6188 15.0407 22.4538 15.0407C18.8506 15.0407 16.0995 15.8456 14.2005 17.4554C12.3015 19.0163 11.352 21.309 11.352 24.3334V25.1383C11.352 28.0651 12.3015 30.309 14.2005 31.87C16.0995 33.3822 18.8506 34.1383 22.4538 34.1383C25.6674 34.1383 28.2481 33.5529 30.1958 32.3822C32.1435 31.1627 33.1173 29.5529 33.1173 27.5529V27.2602H44V27.5529C44 30.7724 43.0992 33.6261 41.2976 36.1139C39.5447 38.5529 37.037 40.4554 33.7747 41.8212C30.561 43.1383 26.7874 43.7968 22.4538 43.7968Z" fill="#FFE600"/>
<path d="M11.0287 -7.75345e-06V48H0V-7.75345e-06H11.0287Z" fill="#FFE600"/>
</svg>
